<?xml version="1.0" encoding="utf-8"?>
<!-- Generator: Adobe Illustrator 22.0.0, SVG Export Plug-In . SVG Version: 6.00 Build 0)  -->
<svg version="1.1" id="Capa_1" xmlns="http://www.w3.org/2000/svg" xmlns:xlink="http://www.w3.org/1999/xlink" x="0px" y="0px"
	 viewBox="0 0 371 341" style="enable-background:new 0 0 371 341;" xml:space="preserve">
<style type="text/css">
	.st0{fill:#929392;}
	.st1{fill:#555655;}
</style>
<g id="Capa_1_1_">
	<g>
		<g>
			<path class="st0" d="M50.2,234.7c0,59.6,13.1,83.1,43,83.1c23.9,0,51.6-28.6,64.6-61.6l6,11.2C144,313.7,113.6,341,78.4,341
				C29.7,341,0,288.2,0,205.8C0,70.9,47.4,0,110,0c46.1,0,70.4,29.3,70.4,84.5c0,91.7-60.7,138.3-130.2,139.3
				C50.2,227.6,50.2,231,50.2,234.7z M135.5,75.3c0-38.1-9.3-58.2-27.1-58.2c-28.6,0-53.6,91.3-57.6,189.8
				C102.9,206.8,135.5,168.6,135.5,75.3z"/>
		</g>
	</g>
</g>
<g>
	<g>
		<path class="st1" d="M305.6,0c21.5,0,37.8,3.2,48.9,9.5c11,6.3,16.5,16.6,16.5,30.9v255.5c0,14.6-5.5,25.2-16.5,31.8
			c-11,6.6-27.3,10-48.9,10h-48.9c-21.6,0-38-3.2-49.3-9.5s-16.9-16.6-16.9-30.9V41.8c0-14.6,5.6-25.2,16.9-31.8
			c11.3-6.6,27.7-10,49.3-10H305.6z M324.4,40.3c0-4.5-1.9-8.3-5.6-11.2c-3.8-2.9-9.9-4.4-18.4-4.4h-39.1c-8,0-14,1.8-18.1,5.3
			c-4,3.6-6,7.9-6,13.1v254.1c0,4.5,2,8.3,6,11.2c4,2.9,10,4.4,18.1,4.4h39.1c8,0,14-1.8,18-5.3c4-3.6,6-7.9,6-13.1V40.3z"/>
	</g>
</g>
</svg>
